<?xml version="1.0" encoding="utf-8"?>
<!-- Generator: Adobe Illustrator 21.0.2, SVG Export Plug-In . SVG Version: 6.00 Build 0)  -->
<svg version="1.1" id="Layer_2" xmlns="http://www.w3.org/2000/svg" xmlns:xlink="http://www.w3.org/1999/xlink" x="0px" y="0px"
	 viewBox="0 0 21.3 21.3" style="enable-background:new 0 0 21.3 21.3;" xml:space="preserve">
<style type="text/css">
	.st0{fill:#4A4A4A;}
</style>
<g id="Rectangle">
	<path class="st0" d="M5,5H0V0h5V5z M1,4h3V1H1V4z"/>
</g>
<g id="Rectangle_1_">
	<path class="st0" d="M13.2,5h-5V0h5V5z M9.2,4h3V1h-3V4z"/>
</g>
<g id="Rectangle_2_">
	<path class="st0" d="M21.3,5h-5V0h5V5z M17.3,4h3V1h-3V4z"/>
</g>
<g id="Rectangle_5_">
	<path class="st0" d="M5,13.1H0v-5h5V13.1z M1,12.1h3v-3H1V12.1z"/>
</g>
<g id="Rectangle_4_">
	<path class="st0" d="M13.2,13.1h-5v-5h5V13.1z M9.2,12.1h3v-3h-3V12.1z"/>
</g>
<g id="Rectangle_3_">
	<path class="st0" d="M21.3,13.1h-5v-5h5V13.1z M17.3,12.1h3v-3h-3V12.1z"/>
</g>
<g id="Rectangle_8_">
	<path class="st0" d="M5,13.2H0v-5h5V13.2z M1,12.2h3v-3H1V12.2z"/>
</g>
<g id="Rectangle_7_">
	<path class="st0" d="M13.2,13.2h-5v-5h5V13.2z M9.2,12.2h3v-3h-3V12.2z"/>
</g>
<g id="Rectangle_6_">
	<path class="st0" d="M21.3,13.2h-5v-5h5V13.2z M17.3,12.2h3v-3h-3V12.2z"/>
</g>
<g id="Rectangle_11_">
	<path class="st0" d="M5,21.3H0v-5h5V21.3z M1,20.3h3v-3H1V20.3z"/>
</g>
<g id="Rectangle_10_">
	<path class="st0" d="M13.2,21.3h-5v-5h5V21.3z M9.2,20.3h3v-3h-3V20.3z"/>
</g>
<g id="Rectangle_9_">
	<path class="st0" d="M21.3,21.3h-5v-5h5V21.3z M17.3,20.3h3v-3h-3V20.3z"/>
</g>
</svg>
