<svg xmlns="http://www.w3.org/2000/svg" xmlns:xlink="http://www.w3.org/1999/xlink" viewBox="0 0 24 30" version="1.1" x="0px" y="0px"><title>2/icons/back-24-black</title><desc>Created with Sketch.</desc><g stroke="none" stroke-width="1" fill="none" fill-rule="evenodd"><g fill-rule="nonzero" fill="#FFFFFF"><path d="M20,11 L4,11 C3.44771525,11 3,11.4477153 3,12 C3,12.5522847 3.44771525,13 4,13 L20,13 C20.5522847,13 21,12.5522847 21,12 C21,11.4477153 20.5522847,11 20,11 Z M12.7071068,4.70710678 C13.0976311,4.31658249 13.0976311,3.68341751 12.7071068,3.29289322 C12.3165825,2.90236893 11.6834175,2.90236893 11.2928932,3.29289322 L3.29289322,11.2928932 C2.90236893,11.6834175 2.90236893,12.3165825 3.29289322,12.7071068 L11.2928932,20.7071068 C11.6834175,21.0976311 12.3165825,21.0976311 12.7071068,20.7071068 C13.0976311,20.3165825 13.0976311,19.6834175 12.7071068,19.2928932 L5.41421356,12 L12.7071068,4.70710678 Z"/></g></g><text x="0" y="39" fill="#000000" font-size="5px" font-weight="bold" font-family="'Helvetica Neue', Helvetica, Arial-Unicode, Arial, Sans-serif">Created by Sergey Ryazantsev</text><text x="0" y="44" fill="#000000" font-size="5px" font-weight="bold" font-family="'Helvetica Neue', Helvetica, Arial-Unicode, Arial, Sans-serif">from the Noun Project</text></svg>