<?xml version="1.0" encoding="utf-8"?>
<!-- Generator: Adobe Illustrator 21.0.2, SVG Export Plug-In . SVG Version: 6.00 Build 0)  -->
<svg version="1.1" id="Layer_1" xmlns="http://www.w3.org/2000/svg" xmlns:xlink="http://www.w3.org/1999/xlink" x="0px" y="0px"
	 viewBox="0 0 24.2 23" style="enable-background:new 0 0 24.2 23;" xml:space="preserve">
<style type="text/css">
	.st0{fill:#020101;}
</style>
<path id="Combined_Shape" class="st0" d="M20.6,23H3.6c-2,0-3.6-1.6-3.6-3.6V6.7c0-1.7,1.4-3,3-3h1.7c0.8,0,1.6-0.4,2-1.1l1-1.5
	C8.2,0.4,9,0,9.8,0h4.7c0.8,0,1.6,0.4,2,1.1l1,1.5c0.4,0.7,1.2,1.1,2,1.1h1.7c1.7,0,3,1.4,3,3v12.7C24.2,21.4,22.6,23,20.6,23z
	 M3,5.4C2.4,5.4,1.8,6,1.8,6.7v12.7c0,1,0.8,1.8,1.8,1.8h16.9c1,0,1.8-0.8,1.8-1.8V6.7c0-0.7-0.5-1.2-1.2-1.2h-1.7
	c-1.4,0-2.7-0.7-3.5-1.9l-1-1.5c-0.1-0.2-0.3-0.3-0.5-0.3H9.8c-0.2,0-0.4,0.1-0.5,0.3l-1,1.5C7.5,4.7,6.2,5.4,4.8,5.4H3z M12.1,17.8
	c-2.8,0-5.1-2.3-5.1-5.1c0-2.8,2.3-5.1,5.1-5.1c2.8,0,5.1,2.3,5.1,5.1v0C17.2,15.5,14.9,17.8,12.1,17.8L12.1,17.8z M12.1,9.4
	c-1.8,0-3.3,1.5-3.3,3.3s1.5,3.3,3.3,3.3s3.3-1.5,3.3-3.3C15.4,10.9,13.9,9.4,12.1,9.4L12.1,9.4z"/>
</svg>
