<?xml version="1.0" encoding="utf-8"?>
<!-- Generator: Adobe Illustrator 21.0.2, SVG Export Plug-In . SVG Version: 6.00 Build 0)  -->
<svg version="1.1" id="Layer_1" xmlns="http://www.w3.org/2000/svg" xmlns:xlink="http://www.w3.org/1999/xlink" x="0px" y="0px"
	 viewBox="0 0 318.5 174.7" style="enable-background:new 0 0 318.5 174.7;" xml:space="preserve">
<style type="text/css">
	.st0{fill:#FFFFFF;}
	.st1{fill:#2C3E50;}
	.st2{display:none;}
</style>
<g id="Layer_5">
	<g>
		<path class="st0" d="M3.2,0v174.6h312.1V0H3.2z M159.2,153.7c-36.6,0-66.4-29.8-66.4-66.4c0-36.6,29.8-66.4,66.4-66.4
			c36.6,0,66.4,29.8,66.4,66.4C225.6,123.9,195.9,153.7,159.2,153.7z"/>
	</g>
</g>
<g id="Layer_3_1_">
	<g>
		<g>
			<path class="st1" d="M159.2,13.5c-40.7,0-73.8,33.1-73.8,73.8c0,40.7,33.1,73.8,73.8,73.8S233,127.9,233,87.3
				C233,46.7,199.9,13.5,159.2,13.5z M159.2,159.2c-39.6,0-71.9-32.3-71.9-71.9c0-39.6,32.2-71.9,71.9-71.9s71.9,32.3,71.9,71.9
				C231.1,126.9,198.8,159.2,159.2,159.2z"/>
		</g>
	</g>
</g>
<g id="Layer_6">
</g>
<g id="Layer_4" class="st2">
</g>
<g id="Layer_2">
</g>
</svg>
