<?xml version="1.0" encoding="utf-8"?>
<!-- Generator: Adobe Illustrator 21.0.2, SVG Export Plug-In . SVG Version: 6.00 Build 0)  -->
<svg version="1.1" xmlns="http://www.w3.org/2000/svg" xmlns:xlink="http://www.w3.org/1999/xlink" x="0px" y="0px"
	 viewBox="0 0 21 23.6" style="enable-background:new 0 0 21 23.6;" xml:space="preserve">
<style type="text/css">
	.st0{fill:#4A4A4A;}
</style>
<g id="Layer_2">
	<g id="Path">
		<path class="st0" d="M10.5,12C7.5,12,5,9.5,5,6.5v-1C5,2.5,7.5,0,10.5,0S16,2.5,16,5.5v1C16,9.5,13.5,12,10.5,12z M10.5,1
			C8,1,6,3,6,5.5v1C6,9,8,11,10.5,11S15,9,15,6.5v-1C15,3,13,1,10.5,1z"/>
	</g>
</g>
<g id="Layer_3">
	<g id="Path_2_">
		<path class="st0" d="M21,23.6H0V21c0-2,1.4-3.8,3.3-4.3c2.3-0.7,4.8-1,7.2-1.1c2.4,0,4.9,0.4,7.2,1.1C19.6,17.2,21,19,21,21V23.6z
			 M1,22.6h19V21c0-1.6-1.1-3-2.6-3.4c-2.3-0.6-4.6-1-6.9-1c-2.3,0-4.7,0.4-6.9,1C2.1,18,1,19.4,1,21V22.6z"/>
	</g>
</g>
</svg>
