<?xml version="1.0" encoding="utf-8"?>
<!-- Generator: Adobe Illustrator 21.0.2, SVG Export Plug-In . SVG Version: 6.00 Build 0)  -->
<svg version="1.1" xmlns="http://www.w3.org/2000/svg" xmlns:xlink="http://www.w3.org/1999/xlink" x="0px" y="0px"
	 viewBox="0 0 21.6 23" style="enable-background:new 0 0 21.6 23;" xml:space="preserve">
<style type="text/css">
	.st0{fill:#4A4A4A;}
</style>
<g id="Layer_1">
	<g id="Path">
		<path class="st0" d="M19.4,16H4.6l-2-15H0V0h3.4l0.7,5h17.5L19.4,16z M5.4,15h13.2l1.8-9H4.2L5.4,15z"/>
	</g>
</g>
<g id="Layer_2">
	<g id="Oval">
		<path class="st0" d="M18.1,23c-1.4,0-2.5-1.1-2.5-2.5s1.1-2.5,2.5-2.5s2.5,1.1,2.5,2.5S19.5,23,18.1,23z M18.1,19
			c-0.8,0-1.5,0.7-1.5,1.5s0.7,1.5,1.5,1.5s1.5-0.7,1.5-1.5S19,19,18.1,19z"/>
	</g>
	<g id="Oval_1_">
		<path class="st0" d="M6.1,23c-1.4,0-2.5-1.1-2.5-2.5S4.7,18,6.1,18s2.5,1.1,2.5,2.5S7.5,23,6.1,23z M6.1,19
			c-0.8,0-1.5,0.7-1.5,1.5S5.3,22,6.1,22s1.5-0.7,1.5-1.5S6.9,19,6.1,19z"/>
	</g>
	<g id="Path_1_">
		<polygon class="st0" points="13.7,5.9 10.1,2.2 6.4,5.9 5.7,5.2 10.1,0.8 14.4,5.2 		"/>
	</g>
	<g id="Path_2_">
		<polygon class="st0" points="18.6,5.9 15,2.2 12.8,4.4 12.1,3.7 15,0.8 19.3,5.2 		"/>
	</g>
</g>
<g id="Layer_4">
</g>
</svg>
